HIERARCHY
ROOT Hip
{
	OFFSET	0.0000	0.0000	0.0000
	CHANNELS 6 Xposition Yposition Zposition Xrotation Yrotation Zrotation
	JOINT LowerSpine
	{
		OFFSET	0.0000	10.1932	-5.5160
		CHANNELS 3 Xrotation Yrotation Zrotation
		JOINT MiddleSpine
		{
			OFFSET	0.0000	9.3020	0.4860
			CHANNELS 3 Xrotation Yrotation Zrotation
			JOINT Chest
			{
				OFFSET	0.0000	11.5102	-2.5620
				CHANNELS 3 Xrotation Yrotation Zrotation
				JOINT Neck
				{
					OFFSET	0.0000	25.9379	-0.5394
					CHANNELS 3 Xrotation Yrotation Zrotation
					JOINT Head
					{
						OFFSET	-0.0001	14.6474	3.9841
						CHANNELS 3 Xrotation Yrotation Zrotation
						End Site
						{
							OFFSET	0.0001	20.4661	0.6110
						}
					}
				}
				JOINT LClavicle
				{
					OFFSET	2.6187	25.0313	8.5759
					CHANNELS 3 Xrotation Yrotation Zrotation
					JOINT LShoulder
					{
						OFFSET	15.2984	3.5904	-5.8096
						CHANNELS 3 Xrotation Yrotation Zrotation
						JOINT LForearm
						{
							OFFSET	32.4969	-0.1152	-0.2816
							CHANNELS 3 Xrotation Yrotation Zrotation
							JOINT LHand
							{
								OFFSET	27.1093	0.0786	-0.1624
								CHANNELS 3 Xrotation Yrotation Zrotation
								JOINT LFinger1
								{
									OFFSET	10.5068	0.9189	2.9182
									CHANNELS 3 Xrotation Yrotation Zrotation
									JOINT LFinger11
									{
										OFFSET	3.9301	-0.9583	0.6925
										CHANNELS 3 Xrotation Yrotation Zrotation
										JOINT LFinger12
										{
											OFFSET	2.6830	-0.6544	0.4729
											CHANNELS 3 Xrotation Yrotation Zrotation
											End Site
											{
												OFFSET	1.9092	-0.5699	0.3097
											}
										}
									}
								}
								JOINT LFinger2
								{
									OFFSET	10.6636	1.0611	0.2541
									CHANNELS 3 Xrotation Yrotation Zrotation
									JOINT LFinger21
									{
										OFFSET	4.8593	0.0136	-0.0287
										CHANNELS 3 Xrotation Yrotation Zrotation
										JOINT LFinger22
										{
											OFFSET	2.6935	0.0083	-0.0164
											CHANNELS 3 Xrotation Yrotation Zrotation
											End Site
											{
												OFFSET	2.4193	-0.1708	0.0032
											}
										}
									}
								}
								JOINT LFinger3
								{
									OFFSET	10.1060	0.7082	-2.3909
									CHANNELS 3 Xrotation Yrotation Zrotation
									JOINT LFinger31
									{
										OFFSET	4.4093	-0.2232	-0.2761
										CHANNELS 3 Xrotation Yrotation Zrotation
										JOINT LFinger32
										{
											OFFSET	2.5127	-0.1264	-0.1578
											CHANNELS 3 Xrotation Yrotation Zrotation
											End Site
											{
												OFFSET	2.2216	-0.2731	-0.1050
											}
										}
									}
								}
								JOINT LFinger4
								{
									OFFSET	9.3780	-0.7126	-4.1291
									CHANNELS 3 Xrotation Yrotation Zrotation
									JOINT LFinger41
									{
										OFFSET	2.7122	-0.5656	-0.7487
										CHANNELS 3 Xrotation Yrotation Zrotation
										JOINT LFinger42
										{
											OFFSET	1.9889	-0.4142	-0.5494
											CHANNELS 3 Xrotation Yrotation Zrotation
											End Site
											{
												OFFSET	1.7652	-0.4850	-0.4050
											}
										}
									}
								}
								JOINT LFinger0
								{
									OFFSET	2.1735	-1.6451	1.6477
									CHANNELS 3 Xrotation Yrotation Zrotation
									JOINT LFinger01
									{
										OFFSET	4.0467	-1.3289	3.0509
										CHANNELS 3 Xrotation Yrotation Zrotation
										JOINT LFinger02
										{
											OFFSET	2.6647	-0.9535	1.9198
											CHANNELS 3 Xrotation Yrotation Zrotation
											End Site
											{
												OFFSET	1.9595	-0.6745	1.3418
											}
										}
									}
								}
							}
						}
					}
				}
				JOINT RClavicle
				{
					OFFSET	-2.6187	25.0313	8.5759
					CHANNELS 3 Xrotation Yrotation Zrotation
					JOINT RShoulder
					{
						OFFSET	-15.3012	3.5910	-5.8106
						CHANNELS 3 Xrotation Yrotation Zrotation
						JOINT RForearm
						{
							OFFSET	-32.4969	-0.1152	-0.2816
							CHANNELS 3 Xrotation Yrotation Zrotation
							JOINT RHand
							{
								OFFSET	-27.1093	0.0786	-0.1624
								CHANNELS 3 Xrotation Yrotation Zrotation
								JOINT RFinger1
								{
									OFFSET	-10.5069	0.9190	2.9183
									CHANNELS 3 Xrotation Yrotation Zrotation
									JOINT RFinger11
									{
										OFFSET	-3.9301	-0.9583	0.6925
										CHANNELS 3 Xrotation Yrotation Zrotation
										JOINT RFinger12
										{
											OFFSET	-2.6829	-0.6545	0.4729
											CHANNELS 3 Xrotation Yrotation Zrotation
											End Site
											{
												OFFSET	-1.9092	-0.5699	0.3097
											}
										}
									}
								}
								JOINT RFinger2
								{
									OFFSET	-10.6636	1.0612	0.2541
									CHANNELS 3 Xrotation Yrotation Zrotation
									JOINT RFinger21
									{
										OFFSET	-4.8593	0.0136	-0.0287
										CHANNELS 3 Xrotation Yrotation Zrotation
										JOINT RFinger22
										{
											OFFSET	-2.6935	0.0082	-0.0165
											CHANNELS 3 Xrotation Yrotation Zrotation
											End Site
											{
												OFFSET	-2.4193	-0.1708	0.0032
											}
										}
									}
								}
								JOINT RFinger3
								{
									OFFSET	-10.1060	0.7082	-2.3909
									CHANNELS 3 Xrotation Yrotation Zrotation
									JOINT RFinger31
									{
										OFFSET	-4.4093	-0.2232	-0.2761
										CHANNELS 3 Xrotation Yrotation Zrotation
										JOINT RFinger32
										{
											OFFSET	-2.5127	-0.1264	-0.1578
											CHANNELS 3 Xrotation Yrotation Zrotation
											End Site
											{
												OFFSET	-2.2216	-0.2732	-0.1050
											}
										}
									}
								}
								JOINT RFinger4
								{
									OFFSET	-9.3780	-0.7126	-4.1291
									CHANNELS 3 Xrotation Yrotation Zrotation
									JOINT RFinger41
									{
										OFFSET	-2.7122	-0.5656	-0.7487
										CHANNELS 3 Xrotation Yrotation Zrotation
										JOINT RFinger42
										{
											OFFSET	-1.9888	-0.4141	-0.5494
											CHANNELS 3 Xrotation Yrotation Zrotation
											End Site
											{
												OFFSET	-1.7652	-0.4850	-0.4050
											}
										}
									}
								}
								JOINT RFinger0
								{
									OFFSET	-2.1735	-1.6450	1.6476
									CHANNELS 3 Xrotation Yrotation Zrotation
									JOINT RFinger01
									{
										OFFSET	-4.0466	-1.3291	3.0511
										CHANNELS 3 Xrotation Yrotation Zrotation
										JOINT RFinger02
										{
											OFFSET	-2.6646	-0.9534	1.9198
											CHANNELS 3 Xrotation Yrotation Zrotation
											End Site
											{
												OFFSET	-1.9595	-0.6745	1.3418
											}
										}
									}
								}
							}
						}
					}
				}
			}
		}
	}
	JOINT RThigh
	{
		OFFSET	-10.9042	4.6076	-0.8988
		CHANNELS 3 Xrotation Yrotation Zrotation
		JOINT RShin
		{
			OFFSET	-0.8725	-47.4282	0.0000
			CHANNELS 3 Xrotation Yrotation Zrotation
			JOINT RFoot
			{
				OFFSET	0.0000	-46.5716	0.0000
				CHANNELS 3 Xrotation Yrotation Zrotation
				JOINT RToe
				{
					OFFSET	0.0000	-5.1186	10.7037
					CHANNELS 3 Xrotation Yrotation Zrotation
					End Site
					{
						OFFSET	0.0000	0.0000	7.1807
					}
				}
			}
		}
	}
	JOINT LThigh
	{
		OFFSET	10.9040	4.6079	-0.8988
		CHANNELS 3 Xrotation Yrotation Zrotation
		JOINT LShin
		{
			OFFSET	0.8726	-47.4285	0.0000
			CHANNELS 3 Xrotation Yrotation Zrotation
			JOINT LFoot
			{
				OFFSET	0.0000	-46.5716	0.0000
				CHANNELS 3 Xrotation Yrotation Zrotation
				JOINT LToe
				{
					OFFSET	0.0000	-5.1187	10.7038
					CHANNELS 3 Xrotation Yrotation Zrotation
					End Site
					{
						OFFSET	0.0000	0.0000	7.1807
					}
				}
			}
		}
	}
}
MOTION
Frames:	6
Frame Time: 0.0333333000
	8.4427	98.8848	-90.3689	-5.491536	-1.165343	-3.207307	0.000000	0.000000	0.000000	-0.045395	1.180879	0.924255	-0.225521	3.932807	3.087927	0.000000	0.000000	0.000000	4.393012	10.269680	-3.183717	0.000000	0.000000	-14.998330	11.194430	-21.738680	-57.587920	0.000000	-13.753560	0.000000	0.000000	0.000000	0.000000	0.000000	0.000000	0.000000	0.000000	0.000000	0.000000	0.000000	0.000000	0.000000	0.000000	0.000000	0.000000	0.000000	0.000000	0.000000	0.000000	0.000000	0.000000	0.000000	0.000000	0.000000	0.000000	0.000000	0.000000	0.000000	0.000000	0.000000	0.000000	0.000000	0.000000	0.000000	0.000000	0.000000	0.000000	0.000000	0.000000	0.000000	0.000000	0.000000	0.000000	0.000000	0.000000	0.000000	0.000000	0.000000	0.000000	0.000000	15.502230	0.611451	-5.626344	62.757260	0.000000	18.442690	0.000000	11.232640	-5.131213	36.090870	0.000000	0.000000	0.000000	0.000000	0.000000	0.000000	0.000000	0.000000	0.000000	0.000000	0.000000	0.000000	0.000000	0.000000	0.000000	0.000000	0.000000	0.000000	0.000000	0.000000	0.000000	0.000000	0.000000	0.000000	0.000000	0.000000	0.000000	0.000000	0.000000	0.000000	0.000000	0.000000	0.000000	0.000000	0.000000	0.000000	0.000000	0.000000	0.000000	0.000000	0.000000	0.000000	0.000000	0.000000	0.000000	0.333957	-0.161111	2.062655	9.896952	0.000001	0.000000	-0.078687	0.970361	0.466278	0.000000	0.000000	0.000000	4.517364	0.623707	5.155128	2.743735	0.000000	0.000000	-0.549692	-1.698222	-0.822188	0.000000	0.000000	0.000000
	8.7345	99.0954	-90.4673	-5.862408	-0.943336	-2.854620	0.000000	0.000000	0.000000	0.125024	1.099080	0.920600	0.348589	3.670411	3.062342	0.000000	0.000000	0.000000	3.803040	10.735980	-3.453087	0.000000	0.000000	-15.053320	16.040820	-27.375190	-56.229430	0.000000	-17.678570	0.000000	0.000000	0.000000	0.000000	0.000000	0.000000	0.000000	0.000000	0.000000	0.000000	0.000000	0.000000	0.000000	0.000000	0.000000	0.000000	0.000000	0.000000	0.000000	0.000000	0.000000	0.000000	0.000000	0.000000	0.000000	0.000000	0.000000	0.000000	0.000000	0.000000	0.000000	0.000000	0.000000	0.000000	0.000000	0.000000	0.000000	0.000000	0.000000	0.000000	0.000000	0.000000	0.000000	0.000000	0.000000	0.000000	0.000000	0.000000	0.000000	0.000000	0.000000	15.454660	3.338105	3.611673	62.026430	0.000000	18.938290	0.000000	5.058635	-4.274553	37.729280	0.000000	0.000000	0.000000	0.000000	0.000000	0.000000	0.000000	0.000000	0.000000	0.000000	0.000000	0.000000	0.000000	0.000000	0.000000	0.000000	0.000000	0.000000	0.000000	0.000000	0.000000	0.000000	0.000000	0.000000	0.000000	0.000000	0.000000	0.000000	0.000000	0.000000	0.000000	0.000000	0.000000	0.000000	0.000000	0.000000	0.000000	0.000000	0.000000	0.000000	0.000000	0.000000	0.000000	0.000000	0.000000	0.071865	-0.125236	1.530692	10.951190	0.000001	0.000000	0.034859	0.198714	0.095260	0.000000	0.000000	0.000000	4.574935	0.531361	4.641269	3.267471	0.000000	0.000000	-0.410508	-2.167631	-1.045120	0.000000	0.000000	0.000000
	9.1086	99.1603	-90.6928	-5.842431	-1.427877	-2.328701	0.000000	0.000000	0.000000	0.273024	1.085174	0.867053	0.846554	3.631941	2.873161	0.000000	0.000000	0.000000	2.897504	11.761160	-3.794456	0.000000	0.000000	-15.205720	17.926030	-28.842630	-56.573410	0.000000	-20.596200	0.000000	0.000000	0.000000	0.000000	0.000000	0.000000	0.000000	0.000000	0.000000	0.000000	0.000000	0.000000	0.000000	0.000000	0.000000	0.000000	0.000000	0.000000	0.000000	0.000000	0.000000	0.000000	0.000000	0.000000	0.000000	0.000000	0.000000	0.000000	0.000000	0.000000	0.000000	0.000000	0.000000	0.000000	0.000000	0.000000	0.000000	0.000000	0.000000	0.000000	0.000000	0.000000	0.000000	0.000000	0.000000	0.000000	0.000000	0.000000	0.000000	0.000000	0.000000	15.093710	8.978246	19.030480	58.273910	0.000000	20.117970	0.000000	-8.104642	-5.266914	34.458700	0.000000	0.000000	0.000000	0.000000	0.000000	0.000000	0.000000	0.000000	0.000000	0.000000	0.000000	0.000000	0.000000	0.000000	0.000000	0.000000	0.000000	0.000000	0.000000	0.000000	0.000000	0.000000	0.000000	0.000000	0.000000	0.000000	0.000000	0.000000	0.000000	0.000000	0.000000	0.000000	0.000000	0.000000	0.000000	0.000000	0.000000	0.000000	0.000000	0.000000	0.000000	0.000000	0.000000	0.000000	0.000000	-0.758466	-0.116959	0.792745	12.290780	0.000001	0.000000	0.394140	0.122730	0.060646	0.000000	0.000000	0.000000	4.353414	0.484314	3.793469	3.718205	0.000000	0.000000	-0.387139	-1.183428	-0.568341	0.000000	0.000000	0.000000
	9.4762	99.0969	-90.8875	-5.454105	-2.167149	-1.722274	0.000000	0.000000	0.000000	0.342985	1.141948	0.731525	1.087561	3.822949	2.414533	0.000000	0.000000	0.000000	2.093944	12.695870	-3.859853	0.000000	0.000000	-15.274640	18.628360	-28.060710	-57.563480	0.000000	-23.402210	0.000000	0.000000	0.000000	0.000000	0.000000	0.000000	0.000000	0.000000	0.000000	0.000000	0.000000	0.000000	0.000000	0.000000	0.000000	0.000000	0.000000	0.000000	0.000000	0.000000	0.000000	0.000000	0.000000	0.000000	0.000000	0.000000	0.000000	0.000000	0.000000	0.000000	0.000000	0.000000	0.000000	0.000000	0.000000	0.000000	0.000000	0.000000	0.000000	0.000000	0.000000	0.000000	0.000000	0.000000	0.000000	0.000000	0.000000	0.000000	0.000000	0.000000	0.000000	14.607390	16.611350	33.934610	51.878850	0.000000	23.084240	0.000000	-19.061830	-4.890265	29.401490	0.000000	0.000000	0.000000	0.000000	0.000000	0.000000	0.000000	0.000000	0.000000	0.000000	0.000000	0.000000	0.000000	0.000000	0.000000	0.000000	0.000000	0.000000	0.000000	0.000000	0.000000	0.000000	0.000000	0.000000	0.000000	0.000000	0.000000	0.000000	0.000000	0.000000	0.000000	0.000000	0.000000	0.000000	0.000000	0.000000	0.000000	0.000000	0.000000	0.000000	0.000000	0.000000	0.000000	0.000000	0.000000	-1.720746	-0.067367	0.032143	13.300110	0.000001	0.000000	0.443294	-0.098558	-0.044928	0.000000	0.000000	0.000000	3.876341	0.545590	2.858777	3.917769	0.000000	0.000000	-0.338797	0.076974	0.037173	0.000000	0.000000	0.000000
	9.8407	98.9531	-91.0196	-5.138961	-2.824785	-1.142953	0.000000	0.000000	0.000000	0.363092	1.184625	0.521290	1.169690	3.960864	1.710435	0.000000	0.000000	0.000000	0.479985	13.950260	-3.529339	0.000000	0.000000	-15.185000	19.486860	-27.476730	-57.651270	0.000000	-25.802410	0.000000	0.000000	0.000000	0.000000	0.000000	0.000000	0.000000	0.000000	0.000000	0.000000	0.000000	0.000000	0.000000	0.000000	0.000000	0.000000	0.000000	0.000000	0.000000	0.000000	0.000000	0.000000	0.000000	0.000000	0.000000	0.000000	0.000000	0.000000	0.000000	0.000000	0.000000	0.000000	0.000000	0.000000	0.000000	0.000000	0.000000	0.000000	0.000000	0.000000	0.000000	0.000000	0.000000	0.000000	0.000000	0.000000	0.000000	0.000000	0.000000	0.000000	0.000000	14.176100	21.539160	42.981620	46.135400	0.000000	27.458560	0.000000	-19.511160	-1.001044	26.129780	0.000000	0.000000	0.000000	0.000000	0.000000	0.000000	0.000000	0.000000	0.000000	0.000000	0.000000	0.000000	0.000000	0.000000	0.000000	0.000000	0.000000	0.000000	0.000000	0.000000	0.000000	0.000000	0.000000	0.000000	0.000000	0.000000	0.000000	0.000000	0.000000	0.000000	0.000000	0.000000	0.000000	0.000000	0.000000	0.000000	0.000000	0.000000	0.000000	0.000000	0.000000	0.000000	0.000000	0.000000	0.000000	-2.627493	-0.054353	-0.679934	14.609520	0.000001	0.000000	0.089502	-0.050691	-0.029500	0.000000	0.000000	0.000000	3.461257	0.590321	1.946997	3.986290	0.000000	0.000000	-0.117517	0.465170	0.220731	0.000000	0.000000	0.000000
	10.1079	98.8673	-91.2008	-5.067726	-3.150825	-0.738848	0.000000	0.000000	0.000000	0.367543	1.176715	0.293753	1.202876	3.929853	0.950836	0.000000	0.000000	0.000000	-0.578448	14.587280	-2.967488	0.000000	0.000000	-15.067720	20.162100	-27.771310	-56.980830	0.000000	-26.646420	0.000000	0.000000	0.000000	0.000000	0.000000	0.000000	0.000000	0.000000	0.000000	0.000000	0.000000	0.000000	0.000000	0.000000	0.000000	0.000000	0.000000	0.000000	0.000000	0.000000	0.000000	0.000000	0.000000	0.000000	0.000000	0.000000	0.000000	0.000000	0.000000	0.000000	0.000000	0.000000	0.000000	0.000000	0.000000	0.000000	0.000000	0.000000	0.000000	0.000000	0.000000	0.000000	0.000000	0.000000	0.000000	0.000000	0.000000	0.000000	0.000000	0.000000	0.000000	13.684450	21.907370	47.600870	42.786300	0.000000	32.870120	0.000000	-20.178740	-1.586479	23.083850	0.000000	0.000000	0.000000	0.000000	0.000000	0.000000	0.000000	0.000000	0.000000	0.000000	0.000000	0.000000	0.000000	0.000000	0.000000	0.000000	0.000000	0.000000	0.000000	0.000000	0.000000	0.000000	0.000000	0.000000	0.000000	0.000000	0.000000	0.000000	0.000000	0.000000	0.000000	0.000000	0.000000	0.000000	0.000000	0.000000	0.000000	0.000000	0.000000	0.000000	0.000000	0.000000	0.000000	0.000000	0.000000	-3.253319	-0.169986	-1.175964	15.761010	0.000001	0.000000	-0.081073	0.762260	0.361458	0.000000	0.000000	0.000000	3.057821	0.561263	1.320488	4.352008	0.000000	0.000000	0.196156	0.161904	0.075309	0.000000	0.000000	0.000000
